<svg xmlns="http://www.w3.org/2000/svg" xmlns:xlink="http://www.w3.org/1999/xlink" width="170" zoomAndPan="magnify" viewBox="0 0 127.5 60" height="80" preserveAspectRatio="xMidYMid meet" version="1.0"><defs><g/><clipPath id="84aa3921e4"><path d="M 120.550781 20.507812 L 126.996094 20.507812 L 126.996094 30.566406 L 120.550781 30.566406 Z M 120.550781 20.507812 " clip-rule="nonzero"/></clipPath><clipPath id="93878c62b2"><path d="M 0 10.339844 L 126 10.339844 L 126 32 L 0 32 Z M 0 10.339844 " clip-rule="nonzero"/></clipPath><clipPath id="cc66c8ae94"><path d="M 43.101562 31.367188 L 81.746094 31.367188 L 81.746094 36.488281 L 43.101562 36.488281 Z M 43.101562 31.367188 " clip-rule="nonzero"/></clipPath></defs><path fill="#f8a01c" d="M 12.058594 25.863281 L 9.503906 28.671875 C 9.199219 29.003906 8.785156 29.21875 8.339844 29.273438 L 4.730469 29.722656 C 4.648438 29.730469 4.585938 29.804688 4.59375 29.890625 C 4.597656 29.972656 4.667969 30.039062 4.75 30.039062 L 9.472656 30.039062 C 9.523438 30.039062 9.574219 30.015625 9.601562 29.972656 L 12.308594 26.0625 C 12.355469 25.992188 12.34375 25.898438 12.277344 25.847656 C 12.210938 25.792969 12.117188 25.800781 12.058594 25.863281 " fill-opacity="1" fill-rule="nonzero"/><g clip-path="url(#84aa3921e4)"><path fill="#e52024" d="M 126.988281 30.421875 L 123.300781 22.71875 C 123.277344 22.675781 123.277344 22.625 123.296875 22.578125 C 123.320312 22.53125 123.359375 22.496094 123.410156 22.476562 L 123.75 22.359375 C 123.792969 22.34375 123.8125 22.300781 123.796875 22.265625 L 123.117188 20.621094 C 123.105469 20.589844 123.066406 20.570312 123.03125 20.578125 L 120.738281 20.875 C 120.714844 20.878906 120.691406 20.894531 120.679688 20.917969 C 120.667969 20.9375 120.667969 20.964844 120.683594 20.984375 L 126.847656 30.488281 C 126.859375 30.511719 126.886719 30.523438 126.914062 30.523438 C 126.925781 30.523438 126.941406 30.523438 126.953125 30.515625 C 126.988281 30.5 127.003906 30.457031 126.988281 30.421875 " fill-opacity="1" fill-rule="nonzero"/></g><g clip-path="url(#93878c62b2)"><path fill="#1ecb15" d="M 125.042969 18.121094 L 124.933594 18.511719 C 124.628906 19.582031 123.539062 20.226562 122.453125 19.976562 C 122.0625 19.886719 121.714844 19.808594 121.523438 19.769531 C 121.203125 19.714844 120.855469 19.664062 120.488281 19.605469 C 120.121094 19.554688 119.730469 19.484375 119.308594 19.441406 C 118.890625 19.394531 118.445312 19.34375 117.984375 19.289062 C 117.519531 19.238281 117.027344 19.203125 116.515625 19.15625 C 116.261719 19.132812 116 19.113281 115.734375 19.089844 C 115.464844 19.074219 115.191406 19.054688 114.914062 19.039062 C 114.359375 19.011719 113.785156 18.964844 113.191406 18.941406 C 110.808594 18.828125 108.101562 18.789062 105.144531 18.800781 C 102.1875 18.820312 98.980469 18.917969 95.585938 19.074219 C 92.195312 19.226562 88.613281 19.4375 84.910156 19.699219 C 83.0625 19.824219 81.179688 19.96875 79.273438 20.117188 C 77.371094 20.273438 75.445312 20.445312 73.5 20.621094 C 69.617188 20.972656 65.671875 21.363281 61.726562 21.761719 C 59.753906 21.960938 57.785156 22.160156 55.816406 22.359375 C 54.832031 22.457031 53.851562 22.554688 52.871094 22.652344 C 52.378906 22.695312 51.890625 22.742188 51.402344 22.785156 C 50.917969 22.832031 50.417969 22.867188 49.929688 22.902344 C 47.976562 23.058594 46.023438 23.144531 44.089844 23.144531 C 42.160156 23.160156 40.25 23.074219 38.386719 22.925781 C 36.523438 22.777344 34.707031 22.582031 32.933594 22.441406 C 31.15625 22.300781 29.417969 22.207031 27.730469 22.164062 C 27.304688 22.15625 26.882812 22.148438 26.460938 22.144531 C 26.253906 22.140625 26.042969 22.136719 25.832031 22.136719 L 25.675781 22.132812 L 25.53125 22.136719 L 25.226562 22.140625 C 25.023438 22.148438 24.824219 22.148438 24.625 22.15625 C 24.421875 22.171875 24.222656 22.1875 24.023438 22.199219 C 23.625 22.222656 23.234375 22.277344 22.839844 22.320312 C 21.28125 22.523438 19.78125 22.847656 18.363281 23.222656 C 15.523438 23.988281 12.988281 24.953125 10.777344 25.882812 C 8.574219 26.835938 6.695312 27.765625 5.167969 28.5625 C 3.640625 29.359375 2.464844 30.027344 1.671875 30.5 C 1.273438 30.734375 0.972656 30.917969 0.769531 31.042969 C 0.714844 31.078125 0.648438 31.09375 0.585938 31.09375 C 0.46875 31.09375 0.351562 31.035156 0.285156 30.925781 C 0 30.460938 0.15625 29.851562 0.632812 29.578125 C 0.75 29.511719 0.878906 29.4375 1.019531 29.359375 C 1.839844 28.898438 3.042969 28.238281 4.601562 27.453125 C 6.164062 26.664062 8.082031 25.753906 10.332031 24.820312 C 12.578125 23.886719 15.160156 22.914062 18.078125 22.140625 C 19.535156 21.761719 21.078125 21.433594 22.707031 21.230469 C 23.113281 21.1875 23.523438 21.128906 23.941406 21.109375 C 24.148438 21.09375 24.355469 21.078125 24.566406 21.0625 C 24.777344 21.054688 24.992188 21.050781 25.203125 21.046875 L 25.523438 21.039062 L 25.6875 21.035156 L 25.84375 21.039062 C 26.054688 21.039062 26.261719 21.042969 26.472656 21.042969 C 26.890625 21.050781 27.316406 21.054688 27.742188 21.0625 C 29.464844 21.101562 31.222656 21.1875 33.015625 21.324219 C 34.808594 21.460938 36.628906 21.652344 38.472656 21.792969 C 40.316406 21.9375 42.183594 22.015625 44.082031 21.992188 C 45.976562 21.972656 47.894531 21.867188 49.828125 21.6875 C 50.316406 21.644531 50.792969 21.609375 51.28125 21.558594 C 51.765625 21.507812 52.253906 21.457031 52.742188 21.40625 C 53.71875 21.296875 54.695312 21.191406 55.675781 21.082031 C 57.636719 20.859375 59.609375 20.640625 61.578125 20.417969 C 69.460938 19.523438 77.355469 18.691406 84.773438 18.058594 C 86.328125 17.925781 87.859375 17.800781 89.367188 17.691406 C 89.496094 17.679688 89.628906 17.667969 89.757812 17.660156 C 89.574219 17.582031 89.378906 17.5 89.164062 17.417969 C 87.070312 16.578125 83.363281 15.296875 77.597656 13.960938 C 71.507812 12.550781 64.570312 12.886719 59.636719 13.460938 C 56.203125 13.859375 52.820312 14.640625 49.566406 15.816406 C 49.550781 15.824219 49.535156 15.828125 49.519531 15.832031 C 45.597656 17.25 42.433594 18.722656 40.257812 19.816406 C 39.171875 20.363281 38.328125 20.816406 37.757812 21.132812 C 37.574219 21.238281 37.402344 21.339844 37.265625 21.425781 C 37.265625 21.425781 37.265625 21.425781 37.261719 21.425781 C 37.261719 21.429688 37.257812 21.429688 37.253906 21.429688 C 37.113281 21.507812 36.917969 21.535156 36.890625 21.535156 C 36.890625 21.535156 36.886719 21.535156 36.886719 21.535156 C 36.59375 21.523438 36.027344 21.472656 35.625 21.4375 C 35.605469 21.433594 35.589844 21.433594 35.570312 21.433594 C 35.566406 21.433594 35.5625 21.433594 35.554688 21.429688 C 35.261719 21.390625 35.371094 21.277344 35.457031 21.21875 C 35.460938 21.214844 35.464844 21.210938 35.46875 21.210938 C 35.476562 21.203125 35.488281 21.199219 35.496094 21.191406 C 35.5 21.191406 35.507812 21.183594 35.519531 21.179688 C 35.914062 20.9375 36.511719 20.566406 36.546875 20.546875 C 36.695312 20.460938 36.917969 20.332031 37.203125 20.164062 C 37.777344 19.832031 38.628906 19.359375 39.722656 18.789062 C 41.917969 17.648438 45.097656 16.113281 49.0625 14.613281 C 51.042969 13.863281 53.222656 13.132812 55.566406 12.488281 C 57.910156 11.847656 60.421875 11.289062 63.054688 10.910156 C 65.6875 10.542969 68.449219 10.363281 71.25 10.480469 C 71.601562 10.492188 71.949219 10.527344 72.300781 10.550781 L 73.097656 10.609375 L 73.355469 10.632812 C 74.046875 10.703125 74.742188 10.773438 75.433594 10.839844 C 76.828125 10.980469 78.226562 11.140625 79.621094 11.289062 C 82.410156 11.601562 85.199219 11.929688 87.941406 12.273438 C 89.3125 12.445312 90.671875 12.617188 92.015625 12.792969 C 93.359375 12.96875 94.683594 13.144531 95.988281 13.324219 C 97.292969 13.503906 98.574219 13.679688 99.828125 13.855469 C 101.082031 14.027344 102.308594 14.214844 103.5 14.394531 C 103.84375 14.445312 104.1875 14.496094 104.527344 14.546875 C 104.773438 14.585938 105.019531 14.625 105.261719 14.660156 L 89.402344 17.453125 C 89.402344 17.453125 89.417969 17.453125 89.449219 17.449219 C 89.460938 17.449219 89.46875 17.449219 89.480469 17.449219 C 90.214844 17.390625 95.785156 16.972656 102.59375 16.820312 C 110.183594 16.644531 119.320312 16.792969 125.035156 18.121094 C 125.039062 18.121094 125.039062 18.121094 125.042969 18.121094 " fill-opacity="1" fill-rule="nonzero"/></g><path fill="#1ecb15" d="M 50.753906 19.894531 L 50.753906 19.457031 C 50.753906 19.167969 50.601562 18.90625 50.347656 18.769531 L 49.488281 18.300781 C 49.175781 18.128906 48.800781 18.101562 48.46875 18.230469 L 44.839844 19.609375 C 44.636719 19.6875 44.5 19.886719 44.5 20.101562 L 44.5 20.777344 C 44.5 20.839844 44.523438 20.894531 44.5625 20.9375 L 45.027344 21.464844 C 45.074219 21.515625 45.140625 21.542969 45.207031 21.542969 L 47.191406 21.542969 C 47.273438 21.542969 47.351562 21.5 47.398438 21.425781 C 47.441406 21.355469 47.441406 21.265625 47.402344 21.191406 L 47.277344 20.957031 L 50.34375 20.390625 C 50.582031 20.347656 50.753906 20.136719 50.753906 19.894531 " fill-opacity="1" fill-rule="nonzero"/><path fill="#1ecb15" d="M 92.003906 20.835938 L 89.460938 19.96875 C 89.390625 19.945312 89.304688 19.964844 89.265625 20.019531 C 89.222656 20.078125 89.238281 20.148438 89.296875 20.191406 L 90.65625 21.191406 C 90.769531 21.277344 90.800781 21.414062 90.730469 21.523438 L 84.472656 31.484375 L 81.410156 33.558594 C 81.34375 33.605469 81.332031 33.683594 81.382812 33.742188 C 81.410156 33.777344 81.460938 33.796875 81.511719 33.796875 C 81.539062 33.796875 81.570312 33.789062 81.597656 33.773438 L 84.953125 31.90625 C 84.972656 31.894531 84.992188 31.878906 85.003906 31.859375 L 92.082031 21.023438 C 92.105469 20.988281 92.109375 20.949219 92.09375 20.914062 C 92.078125 20.878906 92.046875 20.847656 92.003906 20.835938 " fill-opacity="1" fill-rule="nonzero"/><g clip-path="url(#cc66c8ae94)"><path fill="#1ecb15" d="M 81.589844 31.429688 C 81.582031 31.394531 81.542969 31.367188 81.5 31.371094 L 44.945312 35.144531 C 44.917969 35.144531 44.894531 35.160156 44.882812 35.179688 C 44.871094 35.203125 44.871094 35.226562 44.886719 35.246094 L 45.273438 35.777344 L 43.289062 36.382812 C 43.25 36.394531 43.230469 36.429688 43.238281 36.460938 C 43.25 36.492188 43.28125 36.511719 43.316406 36.511719 C 43.320312 36.511719 43.324219 36.511719 43.328125 36.511719 L 81.523438 31.503906 C 81.566406 31.5 81.59375 31.464844 81.589844 31.429688 " fill-opacity="1" fill-rule="nonzero"/></g><path fill="#1ecb15" d="M 24.953125 25.492188 C 20.882812 25.492188 17.078125 27.683594 15.03125 31.207031 C 14.96875 31.3125 15 31.441406 15.101562 31.507812 C 15.140625 31.53125 15.183594 31.542969 15.222656 31.542969 C 15.292969 31.542969 15.363281 31.507812 15.40625 31.445312 C 17.558594 28.359375 21.21875 26.441406 24.953125 26.441406 C 28.316406 26.441406 31.796875 28.074219 34.03125 30.699219 C 34.109375 30.792969 34.238281 30.804688 34.335938 30.730469 C 34.429688 30.660156 34.449219 30.527344 34.382812 30.429688 C 32.234375 27.339844 28.710938 25.492188 24.953125 25.492188 " fill-opacity="1" fill-rule="nonzero"/><path fill="#1ecb15" d="M 107.390625 23.097656 C 103.320312 23.097656 99.515625 25.289062 97.46875 28.8125 C 97.40625 28.917969 97.4375 29.046875 97.539062 29.109375 C 97.578125 29.136719 97.621094 29.148438 97.664062 29.148438 C 97.730469 29.148438 97.800781 29.113281 97.84375 29.050781 C 99.996094 25.964844 103.65625 24.046875 107.390625 24.046875 C 110.753906 24.046875 114.234375 25.679688 116.46875 28.304688 C 116.546875 28.394531 116.675781 28.410156 116.773438 28.335938 C 116.867188 28.261719 116.886719 28.132812 116.820312 28.035156 C 114.671875 24.941406 111.148438 23.097656 107.390625 23.097656 " fill-opacity="1" fill-rule="nonzero"/><path fill="#1ecb15" d="M 35.625 21.4375 C 35.605469 21.4375 35.585938 21.433594 35.570312 21.433594 C 35.589844 21.433594 35.605469 21.433594 35.625 21.4375 " fill-opacity="1" fill-rule="nonzero"/><g fill="#ffffff" fill-opacity="1"><g transform="translate(33.161215, 51.933874)"><g/></g></g><g fill="#ffffff" fill-opacity="1"><g transform="translate(35.331091, 51.933874)"><g><path d="M 2.546875 0 L 1.484375 0 L 1.484375 -4.09375 L 0.140625 -4.09375 L 0.140625 -4.96875 L 3.890625 -4.96875 L 3.890625 -4.09375 L 2.546875 -4.09375 Z M 2.546875 0 "/></g></g></g><g fill="#ffffff" fill-opacity="1"><g transform="translate(39.724574, 51.933874)"><g><path d="M 1.375 -1.90625 C 1.375 -1.53125 1.4375 -1.242188 1.5625 -1.046875 C 1.6875 -0.859375 1.882812 -0.765625 2.15625 -0.765625 C 2.4375 -0.765625 2.632812 -0.859375 2.75 -1.046875 C 2.875 -1.242188 2.9375 -1.53125 2.9375 -1.90625 C 2.9375 -2.28125 2.875 -2.5625 2.75 -2.75 C 2.632812 -2.9375 2.4375 -3.03125 2.15625 -3.03125 C 1.875 -3.03125 1.671875 -2.9375 1.546875 -2.75 C 1.429688 -2.570312 1.375 -2.289062 1.375 -1.90625 Z M 4 -1.90625 C 4 -1.289062 3.832031 -0.804688 3.5 -0.453125 C 3.175781 -0.109375 2.722656 0.0625 2.140625 0.0625 C 1.773438 0.0625 1.453125 -0.015625 1.171875 -0.171875 C 0.898438 -0.328125 0.6875 -0.554688 0.53125 -0.859375 C 0.382812 -1.160156 0.3125 -1.507812 0.3125 -1.90625 C 0.3125 -2.53125 0.472656 -3.015625 0.796875 -3.359375 C 1.117188 -3.703125 1.578125 -3.875 2.171875 -3.875 C 2.535156 -3.875 2.851562 -3.796875 3.125 -3.640625 C 3.40625 -3.484375 3.617188 -3.253906 3.765625 -2.953125 C 3.921875 -2.648438 4 -2.300781 4 -1.90625 Z M 4 -1.90625 "/></g></g></g><g fill="#ffffff" fill-opacity="1"><g transform="translate(44.397236, 51.933874)"><g><path d="M 3.234375 0 L 3.09375 -0.484375 L 3.046875 -0.484375 C 2.929688 -0.304688 2.769531 -0.171875 2.5625 -0.078125 C 2.363281 0.015625 2.132812 0.0625 1.875 0.0625 C 1.425781 0.0625 1.085938 -0.0546875 0.859375 -0.296875 C 0.640625 -0.535156 0.53125 -0.878906 0.53125 -1.328125 L 0.53125 -3.796875 L 1.5625 -3.796875 L 1.5625 -1.578125 C 1.5625 -1.304688 1.609375 -1.101562 1.703125 -0.96875 C 1.804688 -0.832031 1.960938 -0.765625 2.171875 -0.765625 C 2.460938 -0.765625 2.671875 -0.859375 2.796875 -1.046875 C 2.929688 -1.242188 3 -1.566406 3 -2.015625 L 3 -3.796875 L 4.03125 -3.796875 L 4.03125 0 Z M 3.234375 0 "/></g></g></g><g fill="#ffffff" fill-opacity="1"><g transform="translate(49.335458, 51.933874)"><g><path d="M 2.671875 -3.875 C 2.804688 -3.875 2.921875 -3.863281 3.015625 -3.84375 L 2.9375 -2.875 C 2.851562 -2.894531 2.753906 -2.90625 2.640625 -2.90625 C 2.304688 -2.90625 2.046875 -2.816406 1.859375 -2.640625 C 1.671875 -2.472656 1.578125 -2.238281 1.578125 -1.9375 L 1.578125 0 L 0.546875 0 L 0.546875 -3.796875 L 1.328125 -3.796875 L 1.484375 -3.171875 L 1.53125 -3.171875 C 1.65625 -3.378906 1.816406 -3.546875 2.015625 -3.671875 C 2.210938 -3.804688 2.429688 -3.875 2.671875 -3.875 Z M 2.671875 -3.875 "/></g></g></g><g fill="#ffffff" fill-opacity="1"><g transform="translate(52.857358, 51.933874)"><g><path d="M 3.203125 -1.125 C 3.203125 -0.738281 3.066406 -0.441406 2.796875 -0.234375 C 2.523438 -0.0351562 2.117188 0.0625 1.578125 0.0625 C 1.296875 0.0625 1.054688 0.0390625 0.859375 0 C 0.671875 -0.03125 0.488281 -0.0820312 0.3125 -0.15625 L 0.3125 -1.015625 C 0.507812 -0.921875 0.726562 -0.84375 0.96875 -0.78125 C 1.207031 -0.71875 1.421875 -0.6875 1.609375 -0.6875 C 1.984375 -0.6875 2.171875 -0.796875 2.171875 -1.015625 C 2.171875 -1.097656 2.144531 -1.164062 2.09375 -1.21875 C 2.050781 -1.269531 1.96875 -1.328125 1.84375 -1.390625 C 1.71875 -1.453125 1.550781 -1.523438 1.34375 -1.609375 C 1.050781 -1.734375 0.835938 -1.847656 0.703125 -1.953125 C 0.566406 -2.054688 0.46875 -2.175781 0.40625 -2.3125 C 0.34375 -2.445312 0.3125 -2.613281 0.3125 -2.8125 C 0.3125 -3.15625 0.441406 -3.414062 0.703125 -3.59375 C 0.960938 -3.78125 1.335938 -3.875 1.828125 -3.875 C 2.273438 -3.875 2.71875 -3.773438 3.15625 -3.578125 L 2.84375 -2.828125 C 2.65625 -2.910156 2.476562 -2.976562 2.3125 -3.03125 C 2.144531 -3.082031 1.972656 -3.109375 1.796875 -3.109375 C 1.492188 -3.109375 1.34375 -3.023438 1.34375 -2.859375 C 1.34375 -2.765625 1.390625 -2.679688 1.484375 -2.609375 C 1.585938 -2.546875 1.804688 -2.445312 2.140625 -2.3125 C 2.441406 -2.195312 2.660156 -2.085938 2.796875 -1.984375 C 2.929688 -1.878906 3.03125 -1.753906 3.09375 -1.609375 C 3.164062 -1.472656 3.203125 -1.3125 3.203125 -1.125 Z M 3.203125 -1.125 "/></g></g></g><g fill="#ffffff" fill-opacity="1"><g transform="translate(56.678865, 51.933874)"><g/></g></g><g fill="#ffffff" fill-opacity="1"><g transform="translate(58.845728, 51.933874)"><g><path d="M 5.234375 0 L 3.9375 0 L 3.546875 -0.390625 C 3.117188 -0.0859375 2.628906 0.0625 2.078125 0.0625 C 1.523438 0.0625 1.085938 -0.0625 0.765625 -0.3125 C 0.441406 -0.5625 0.28125 -0.90625 0.28125 -1.34375 C 0.28125 -1.65625 0.347656 -1.921875 0.484375 -2.140625 C 0.617188 -2.359375 0.851562 -2.5625 1.1875 -2.75 C 1.019531 -2.945312 0.894531 -3.132812 0.8125 -3.3125 C 0.738281 -3.488281 0.703125 -3.679688 0.703125 -3.890625 C 0.703125 -4.234375 0.832031 -4.507812 1.09375 -4.71875 C 1.363281 -4.9375 1.71875 -5.046875 2.15625 -5.046875 C 2.582031 -5.046875 2.921875 -4.945312 3.171875 -4.75 C 3.421875 -4.550781 3.546875 -4.289062 3.546875 -3.96875 C 3.546875 -3.695312 3.46875 -3.445312 3.3125 -3.21875 C 3.15625 -3 2.90625 -2.789062 2.5625 -2.59375 L 3.53125 -1.640625 C 3.6875 -1.910156 3.820312 -2.253906 3.9375 -2.671875 L 5.03125 -2.671875 C 4.945312 -2.359375 4.832031 -2.054688 4.6875 -1.765625 C 4.539062 -1.472656 4.378906 -1.21875 4.203125 -1 Z M 1.375 -1.4375 C 1.375 -1.25 1.445312 -1.09375 1.59375 -0.96875 C 1.738281 -0.851562 1.925781 -0.796875 2.15625 -0.796875 C 2.4375 -0.796875 2.691406 -0.867188 2.921875 -1.015625 L 1.796875 -2.140625 C 1.660156 -2.035156 1.554688 -1.925781 1.484375 -1.8125 C 1.410156 -1.707031 1.375 -1.582031 1.375 -1.4375 Z M 2.59375 -3.859375 C 2.59375 -3.972656 2.550781 -4.066406 2.46875 -4.140625 C 2.382812 -4.210938 2.28125 -4.25 2.15625 -4.25 C 2 -4.25 1.875 -4.210938 1.78125 -4.140625 C 1.695312 -4.066406 1.65625 -3.960938 1.65625 -3.828125 C 1.65625 -3.628906 1.765625 -3.410156 1.984375 -3.171875 C 2.179688 -3.273438 2.332031 -3.378906 2.4375 -3.484375 C 2.539062 -3.585938 2.59375 -3.710938 2.59375 -3.859375 Z M 2.59375 -3.859375 "/></g></g></g><g fill="#ffffff" fill-opacity="1"><g transform="translate(64.430827, 51.933874)"><g/></g></g><g fill="#ffffff" fill-opacity="1"><g transform="translate(66.597689, 51.933874)"><g><path d="M 2.546875 0 L 1.484375 0 L 1.484375 -4.09375 L 0.140625 -4.09375 L 0.140625 -4.96875 L 3.890625 -4.96875 L 3.890625 -4.09375 L 2.546875 -4.09375 Z M 2.546875 0 "/></g></g></g><g fill="#ffffff" fill-opacity="1"><g transform="translate(70.991172, 51.933874)"><g><path d="M 2.671875 -3.875 C 2.804688 -3.875 2.921875 -3.863281 3.015625 -3.84375 L 2.9375 -2.875 C 2.851562 -2.894531 2.753906 -2.90625 2.640625 -2.90625 C 2.304688 -2.90625 2.046875 -2.816406 1.859375 -2.640625 C 1.671875 -2.472656 1.578125 -2.238281 1.578125 -1.9375 L 1.578125 0 L 0.546875 0 L 0.546875 -3.796875 L 1.328125 -3.796875 L 1.484375 -3.171875 L 1.53125 -3.171875 C 1.65625 -3.378906 1.816406 -3.546875 2.015625 -3.671875 C 2.210938 -3.804688 2.429688 -3.875 2.671875 -3.875 Z M 2.671875 -3.875 "/></g></g></g><g fill="#ffffff" fill-opacity="1"><g transform="translate(74.513073, 51.933874)"><g><path d="M 2.953125 0 L 2.765625 -0.515625 L 2.734375 -0.515625 C 2.554688 -0.296875 2.375 -0.144531 2.1875 -0.0625 C 2.007812 0.0195312 1.769531 0.0625 1.46875 0.0625 C 1.101562 0.0625 0.816406 -0.0390625 0.609375 -0.25 C 0.398438 -0.457031 0.296875 -0.753906 0.296875 -1.140625 C 0.296875 -1.546875 0.4375 -1.84375 0.71875 -2.03125 C 1 -2.21875 1.425781 -2.320312 2 -2.34375 L 2.65625 -2.375 L 2.65625 -2.53125 C 2.65625 -2.914062 2.457031 -3.109375 2.0625 -3.109375 C 1.757812 -3.109375 1.398438 -3.019531 0.984375 -2.84375 L 0.640625 -3.53125 C 1.078125 -3.757812 1.566406 -3.875 2.109375 -3.875 C 2.617188 -3.875 3.007812 -3.765625 3.28125 -3.546875 C 3.550781 -3.328125 3.6875 -2.988281 3.6875 -2.53125 L 3.6875 0 Z M 2.65625 -1.765625 L 2.25 -1.75 C 1.945312 -1.738281 1.722656 -1.679688 1.578125 -1.578125 C 1.429688 -1.484375 1.359375 -1.332031 1.359375 -1.125 C 1.359375 -0.832031 1.523438 -0.6875 1.859375 -0.6875 C 2.097656 -0.6875 2.289062 -0.753906 2.4375 -0.890625 C 2.582031 -1.035156 2.65625 -1.222656 2.65625 -1.453125 Z M 2.65625 -1.765625 "/></g></g></g><g fill="#ffffff" fill-opacity="1"><g transform="translate(79.080191, 51.933874)"><g><path d="M 1.453125 0 L 0 -3.796875 L 1.078125 -3.796875 L 1.828125 -1.640625 C 1.898438 -1.359375 1.945312 -1.097656 1.96875 -0.859375 L 2 -0.859375 C 2.007812 -1.078125 2.054688 -1.335938 2.140625 -1.640625 L 2.875 -3.796875 L 3.96875 -3.796875 L 2.515625 0 Z M 1.453125 0 "/></g></g></g><g fill="#ffffff" fill-opacity="1"><g transform="translate(83.402177, 51.933874)"><g><path d="M 2.125 -3.140625 C 1.90625 -3.140625 1.734375 -3.066406 1.609375 -2.921875 C 1.484375 -2.785156 1.410156 -2.585938 1.390625 -2.328125 L 2.84375 -2.328125 C 2.84375 -2.585938 2.773438 -2.785156 2.640625 -2.921875 C 2.515625 -3.066406 2.34375 -3.140625 2.125 -3.140625 Z M 2.265625 0.0625 C 1.648438 0.0625 1.171875 -0.101562 0.828125 -0.4375 C 0.484375 -0.78125 0.3125 -1.257812 0.3125 -1.875 C 0.3125 -2.507812 0.46875 -3 0.78125 -3.34375 C 1.101562 -3.695312 1.546875 -3.875 2.109375 -3.875 C 2.648438 -3.875 3.066406 -3.71875 3.359375 -3.40625 C 3.660156 -3.101562 3.8125 -2.679688 3.8125 -2.140625 L 3.8125 -1.640625 L 1.359375 -1.640625 C 1.367188 -1.347656 1.457031 -1.117188 1.625 -0.953125 C 1.789062 -0.785156 2.019531 -0.703125 2.3125 -0.703125 C 2.539062 -0.703125 2.753906 -0.722656 2.953125 -0.765625 C 3.160156 -0.816406 3.378906 -0.894531 3.609375 -1 L 3.609375 -0.203125 C 3.421875 -0.109375 3.222656 -0.0390625 3.015625 0 C 2.816406 0.0390625 2.566406 0.0625 2.265625 0.0625 Z M 2.265625 0.0625 "/></g></g></g><g fill="#ffffff" fill-opacity="1"><g transform="translate(87.877371, 51.933874)"><g><path d="M 1.578125 0 L 0.546875 0 L 0.546875 -5.296875 L 1.578125 -5.296875 Z M 1.578125 0 "/></g></g></g><g fill="#ffffff" fill-opacity="1"><g transform="translate(90.360862, 51.933874)"><g><path d="M 3.203125 -1.125 C 3.203125 -0.738281 3.066406 -0.441406 2.796875 -0.234375 C 2.523438 -0.0351562 2.117188 0.0625 1.578125 0.0625 C 1.296875 0.0625 1.054688 0.0390625 0.859375 0 C 0.671875 -0.03125 0.488281 -0.0820312 0.3125 -0.15625 L 0.3125 -1.015625 C 0.507812 -0.921875 0.726562 -0.84375 0.96875 -0.78125 C 1.207031 -0.71875 1.421875 -0.6875 1.609375 -0.6875 C 1.984375 -0.6875 2.171875 -0.796875 2.171875 -1.015625 C 2.171875 -1.097656 2.144531 -1.164062 2.09375 -1.21875 C 2.050781 -1.269531 1.96875 -1.328125 1.84375 -1.390625 C 1.71875 -1.453125 1.550781 -1.523438 1.34375 -1.609375 C 1.050781 -1.734375 0.835938 -1.847656 0.703125 -1.953125 C 0.566406 -2.054688 0.46875 -2.175781 0.40625 -2.3125 C 0.34375 -2.445312 0.3125 -2.613281 0.3125 -2.8125 C 0.3125 -3.15625 0.441406 -3.414062 0.703125 -3.59375 C 0.960938 -3.78125 1.335938 -3.875 1.828125 -3.875 C 2.273438 -3.875 2.71875 -3.773438 3.15625 -3.578125 L 2.84375 -2.828125 C 2.65625 -2.910156 2.476562 -2.976562 2.3125 -3.03125 C 2.144531 -3.082031 1.972656 -3.109375 1.796875 -3.109375 C 1.492188 -3.109375 1.34375 -3.023438 1.34375 -2.859375 C 1.34375 -2.765625 1.390625 -2.679688 1.484375 -2.609375 C 1.585938 -2.546875 1.804688 -2.445312 2.140625 -2.3125 C 2.441406 -2.195312 2.660156 -2.085938 2.796875 -1.984375 C 2.929688 -1.878906 3.03125 -1.753906 3.09375 -1.609375 C 3.164062 -1.472656 3.203125 -1.3125 3.203125 -1.125 Z M 3.203125 -1.125 "/></g></g></g><g fill="#ffffff" fill-opacity="1"><g transform="translate(94.190136, 51.933874)"><g/></g></g><g fill="#e52024" fill-opacity="1"><g transform="translate(28.365877, 42.798902)"><g><path d="M 0.117188 0 L 7.121094 0 C 7.824219 0 8.335938 -0.511719 8.335938 -1.214844 L 8.335938 -2.359375 C 8.335938 -3.058594 7.824219 -3.574219 7.121094 -3.574219 L 1.429688 -3.574219 C 1.296875 -3.574219 1.191406 -3.679688 1.191406 -3.8125 L 1.191406 -4.523438 C 1.191406 -4.65625 1.296875 -4.761719 1.429688 -4.761719 L 8.214844 -4.761719 C 8.289062 -4.761719 8.335938 -4.8125 8.335938 -4.882812 L 8.335938 -5.835938 C 8.335938 -5.90625 8.289062 -5.953125 8.214844 -5.953125 L 1.214844 -5.953125 C 0.511719 -5.953125 0 -5.441406 0 -4.738281 L 0 -3.597656 C 0 -2.894531 0.511719 -2.382812 1.214844 -2.382812 L 6.90625 -2.382812 C 7.039062 -2.382812 7.144531 -2.273438 7.144531 -2.144531 L 7.144531 -1.429688 C 7.144531 -1.296875 7.039062 -1.191406 6.90625 -1.191406 L 0.117188 -1.191406 C 0.046875 -1.191406 0 -1.144531 0 -1.070312 L 0 -0.117188 C 0 -0.046875 0.046875 0 0.117188 0 Z M 0.117188 0 "/></g></g></g><g fill="#e52024" fill-opacity="1"><g transform="translate(40.273461, 42.798902)"><g><path d="M 0.117188 0 L 1.070312 0 C 1.144531 0 1.191406 -0.046875 1.191406 -0.117188 L 1.191406 -2.382812 L 7.144531 -2.382812 L 7.144531 -0.117188 C 7.144531 -0.046875 7.191406 0 7.265625 0 L 8.214844 0 C 8.289062 0 8.335938 -0.046875 8.335938 -0.117188 L 8.335938 -4.738281 C 8.335938 -5.441406 7.824219 -5.953125 7.121094 -5.953125 L 1.214844 -5.953125 C 0.511719 -5.953125 0 -5.441406 0 -4.738281 L 0 -0.117188 C 0 -0.046875 0.046875 0 0.117188 0 Z M 1.191406 -3.574219 L 1.191406 -4.523438 C 1.191406 -4.65625 1.296875 -4.761719 1.429688 -4.761719 L 6.90625 -4.761719 C 7.039062 -4.761719 7.144531 -4.65625 7.144531 -4.523438 L 7.144531 -3.574219 Z M 1.191406 -3.574219 "/></g></g></g><g fill="#e52024" fill-opacity="1"><g transform="translate(52.181045, 42.798902)"><g><path d="M 0.117188 0 L 1.070312 0 C 1.144531 0 1.191406 -0.046875 1.191406 -0.117188 L 1.191406 -5.835938 C 1.191406 -5.90625 1.144531 -5.953125 1.070312 -5.953125 L 0.117188 -5.953125 C 0.046875 -5.953125 0 -5.90625 0 -5.835938 L 0 -0.117188 C 0 -0.046875 0.046875 0 0.117188 0 Z M 0.117188 0 "/></g></g></g><g fill="#e52024" fill-opacity="1"><g transform="translate(56.944735, 42.798902)"><g/></g></g><g fill="#e52024" fill-opacity="1"><g transform="translate(62.899069, 42.798902)"><g><path d="M 0.117188 0 L 1.070312 0 C 1.144531 0 1.191406 -0.046875 1.191406 -0.117188 L 1.191406 -2.382812 L 5.691406 -2.382812 L 6.527344 0 L 7.835938 0 L 7.003906 -2.382812 L 7.121094 -2.382812 C 7.824219 -2.382812 8.335938 -2.894531 8.335938 -3.597656 L 8.335938 -4.738281 C 8.335938 -5.441406 7.824219 -5.953125 7.121094 -5.953125 L 0.117188 -5.953125 C 0.046875 -5.953125 0 -5.90625 0 -5.835938 L 0 -0.117188 C 0 -0.046875 0.046875 0 0.117188 0 Z M 1.191406 -3.574219 L 1.191406 -4.761719 L 6.90625 -4.761719 C 7.039062 -4.761719 7.144531 -4.65625 7.144531 -4.523438 L 7.144531 -3.8125 C 7.144531 -3.679688 7.039062 -3.574219 6.90625 -3.574219 Z M 1.191406 -3.574219 "/></g></g></g><g fill="#e52024" fill-opacity="1"><g transform="translate(74.806653, 42.798902)"><g><path d="M 0.117188 0 L 1.070312 0 C 1.144531 0 1.191406 -0.046875 1.191406 -0.117188 L 1.191406 -2.382812 L 7.144531 -2.382812 L 7.144531 -0.117188 C 7.144531 -0.046875 7.191406 0 7.265625 0 L 8.214844 0 C 8.289062 0 8.335938 -0.046875 8.335938 -0.117188 L 8.335938 -4.738281 C 8.335938 -5.441406 7.824219 -5.953125 7.121094 -5.953125 L 1.214844 -5.953125 C 0.511719 -5.953125 0 -5.441406 0 -4.738281 L 0 -0.117188 C 0 -0.046875 0.046875 0 0.117188 0 Z M 1.191406 -3.574219 L 1.191406 -4.523438 C 1.191406 -4.65625 1.296875 -4.761719 1.429688 -4.761719 L 6.90625 -4.761719 C 7.039062 -4.761719 7.144531 -4.65625 7.144531 -4.523438 L 7.144531 -3.574219 Z M 1.191406 -3.574219 "/></g></g></g><g fill="#e52024" fill-opacity="1"><g transform="translate(86.714237, 42.798902)"><g><path d="M 0.117188 0 L 1.070312 0 C 1.144531 0 1.191406 -0.046875 1.191406 -0.117188 L 1.191406 -4.523438 C 1.191406 -4.65625 1.296875 -4.761719 1.429688 -4.761719 L 4.523438 -4.761719 C 4.65625 -4.761719 4.761719 -4.65625 4.761719 -4.523438 L 4.761719 -0.117188 C 4.761719 -0.046875 4.8125 0 4.882812 0 L 5.835938 0 C 5.90625 0 5.953125 -0.046875 5.953125 -0.117188 L 5.953125 -4.523438 C 5.953125 -4.65625 6.0625 -4.761719 6.191406 -4.761719 L 9.289062 -4.761719 C 9.417969 -4.761719 9.527344 -4.65625 9.527344 -4.523438 L 9.527344 -0.117188 C 9.527344 -0.046875 9.574219 0 9.644531 0 L 10.597656 0 C 10.667969 0 10.71875 -0.046875 10.71875 -0.117188 L 10.71875 -4.738281 C 10.71875 -5.441406 10.207031 -5.953125 9.503906 -5.953125 L 5.976562 -5.953125 C 5.75 -5.953125 5.539062 -5.894531 5.359375 -5.800781 C 5.179688 -5.894531 4.964844 -5.953125 4.738281 -5.953125 L 1.214844 -5.953125 C 0.511719 -5.953125 0 -5.441406 0 -4.738281 L 0 -0.117188 C 0 -0.046875 0.046875 0 0.117188 0 Z M 0.117188 0 "/></g></g></g></svg>