<svg xmlns="http://www.w3.org/2000/svg" xmlns:xlink="http://www.w3.org/1999/xlink" width="480" zoomAndPan="magnify" viewBox="0 0 360 540.000001" height="720" preserveAspectRatio="xMidYMid meet" version="1.0"><defs><clipPath id="92a59c52c3"><path d="M 175 77.367188 L 247 77.367188 L 247 110 L 175 110 Z M 175 77.367188 " clip-rule="nonzero"/></clipPath><clipPath id="b29400f6d3"><path d="M 56.582031 210.515625 L 326.15625 210.515625 L 326.15625 461.378906 L 56.582031 461.378906 Z M 56.582031 210.515625 " clip-rule="nonzero"/></clipPath><clipPath id="d20a246a59"><path d="M 271.617188 353.855469 L 345.136719 353.855469 L 345.136719 414 L 271.617188 414 Z M 271.617188 353.855469 " clip-rule="nonzero"/></clipPath></defs><path fill="#4e4e4e" d="M 153.039062 202.585938 C 155.328125 202.941406 157.617188 203.285156 159.90625 203.625 C 162.210938 203.96875 164.523438 204.308594 166.871094 204.59375 C 186.636719 206.984375 209.0625 205.296875 230.859375 201.5 C 235.203125 200.746094 239.378906 199.953125 241.242188 197.402344 C 242.515625 195.664062 242.648438 193.144531 242.78125 190.613281 C 243.445312 178.105469 243.664062 165.867188 239.449219 154.96875 C 231.652344 134.816406 211.363281 121.085938 187.222656 119.792969 C 180.171875 119.417969 173 120.222656 165.769531 121.125 C 154.5 122.53125 143.46875 124.070312 136.683594 130.335938 C 131.527344 135.09375 129 142.429688 127 150.023438 C 125.070312 157.34375 123.75 164.78125 122.640625 172.292969 C 120.941406 183.789062 119.707031 194.726562 124.964844 199.125 C 128.605469 202.171875 135.21875 202.132812 141.945312 202.371094 C 143.996094 202.441406 146.003906 202.824219 148.042969 202.984375 L 147.964844 210.410156 L 153.027344 210.410156 L 153.039062 202.585938 " fill-opacity="1" fill-rule="nonzero"/><path fill="#ffeaca" d="M 170.492188 192.898438 C 163.015625 196.730469 156.363281 202.421875 148.945312 207.253906 C 139.957031 213.105469 129.882812 217.386719 119.515625 220.492188 C 113.117188 222.410156 106.589844 223.875 100.136719 225.636719 C 88.609375 228.785156 77.335938 232.765625 68.3125 239.757812 C 59.902344 246.277344 53.148438 255.152344 49.710938 265.757812 C 45.417969 266.746094 41.492188 268.660156 37.816406 270.964844 C 26.84375 277.847656 18.710938 287.578125 16.804688 299.003906 C 15.003906 309.808594 18.328125 320.25 25.6875 323.683594 C 34.894531 327.980469 49.296875 318.777344 64.894531 318.921875 C 73.78125 319.003906 82.496094 321.96875 88.445312 328.164062 C 96.691406 336.761719 98.609375 351 98.441406 365.726562 C 98.320312 376.65625 96.828125 387.476562 93.8125 398.101562 C 99.644531 406.734375 106.972656 414.015625 115.230469 420.183594 C 127.628906 429.445312 142.148438 435.972656 157.386719 439.816406 C 169.875 442.964844 182.589844 444.410156 195.867188 443.703125 C 220.578125 442.386719 246.648438 433.589844 271.738281 422.191406 C 268.164062 409.808594 265.027344 397.46875 262.851562 385.019531 C 261.558594 377.609375 260.578125 370.347656 263.269531 364.726562 C 266.007812 359.011719 272.132812 355.238281 278.757812 354.058594 C 292.164062 351.675781 305.75 360.816406 318.730469 358.453125 C 326.007812 357.125 332.496094 352.648438 334.1875 346.4375 C 336.351562 338.507812 329.722656 328.488281 325.015625 317.304688 C 318.3125 301.386719 316.011719 283.714844 307.441406 270.070312 C 297.835938 254.78125 280.824219 244.519531 262.265625 237.738281 C 251.804688 233.914062 241.15625 230.929688 237.304688 225.417969 C 235.613281 223.007812 235.3125 220.082031 234.695312 217.238281 C 233.554688 212.007812 232.066406 207.09375 228.644531 202.707031 C 217.921875 188.980469 192.773438 181.476562 170.492188 192.898438 " fill-opacity="1" fill-rule="nonzero"/><path fill="#393939" d="M 103.894531 224.394531 C 102.972656 227.699219 114.480469 232.921875 124.667969 241.984375 C 138.554688 254.339844 147.976562 272.34375 158.707031 290.449219 C 185.199219 335.144531 221.128906 379.285156 257.390625 421.410156 L 274.164062 414.199219 C 261.164062 394.339844 246.410156 375.621094 233.589844 355.625 C 211.011719 320.40625 187.636719 283.460938 162.570312 253.753906 C 148.320312 236.867188 132.378906 222.914062 120.203125 220.679688 C 116.558594 220.011719 113.3125 220.542969 110.070312 221.292969 C 107.066406 221.984375 104.308594 222.921875 103.894531 224.394531 " fill-opacity="1" fill-rule="nonzero"/><path fill="#f7bd9a" d="M 88.542969 256.824219 C 87.714844 254.867188 86.3125 253.046875 84.515625 251.613281 C 81.867188 249.503906 78.734375 248.359375 76.125 249.273438 C 73.878906 250.058594 72.199219 252.273438 71.242188 254.960938 C 69.78125 259.070312 70.183594 263.925781 71.8125 268.480469 C 72.714844 271.003906 73.859375 273.386719 75.839844 274.257812 C 82.792969 277.3125 93.324219 268.847656 88.542969 256.824219 " fill-opacity="1" fill-rule="nonzero"/><path fill="#f7bd9a" d="M 227.726562 93.859375 C 218.230469 87.875 206.691406 87.621094 197.367188 92.917969 C 189.132812 97.597656 183.65625 106.488281 179.480469 116.324219 C 176.621094 123.046875 174.632812 130.074219 173.59375 137.375 C 172.597656 136.089844 171.078125 135.628906 169.621094 135.960938 C 167.191406 136.511719 165.277344 139.214844 164.335938 142.519531 C 163.023438 147.144531 163.9375 152.433594 165.09375 157.816406 C 166.113281 162.574219 167.390625 167.285156 169.417969 169.09375 C 169.976562 169.59375 170.582031 169.878906 171.28125 169.9375 C 171.042969 174.070312 170.507812 178.179688 169.851562 182.261719 C 169.074219 187.117188 167.96875 191.925781 166.710938 196.683594 C 165.191406 202.441406 163.328125 208.042969 163.652344 213.75 C 164.160156 222.644531 169.863281 231.542969 177.179688 239.0625 C 182.101562 244.117188 187.835938 248.429688 191.933594 253.804688 C 194.78125 257.546875 197.105469 261.71875 198.242188 266.316406 C 201.078125 262.386719 203.34375 258.089844 205.09375 253.613281 C 206.875 249.066406 208.027344 244.265625 210.304688 240.109375 C 213.699219 233.921875 219.46875 229.128906 222.476562 223.007812 C 224.433594 219.023438 225.171875 214.480469 226.3125 210.035156 C 226.894531 207.757812 227.558594 205.5 228.371094 203.292969 C 229.871094 201.871094 231.152344 200.277344 232.339844 198.535156 C 234.746094 195.011719 236.703125 190.828125 238.390625 186.578125 C 239.542969 186.871094 240.621094 186.472656 241.316406 185.632812 C 242.40625 184.3125 242.34375 181.933594 242.816406 179.648438 C 243.289062 177.371094 244.277344 175.183594 245.476562 173.152344 C 248.367188 168.242188 252.359375 164.140625 252.703125 160.546875 C 252.859375 158.898438 252.300781 157.433594 251.164062 156.59375 C 250.195312 155.878906 248.804688 155.582031 247.546875 156.167969 C 251.679688 148.601562 253.089844 140.285156 252.003906 132.035156 C 250.496094 120.617188 244.457031 109.933594 235.984375 100.9375 C 233.460938 98.257812 230.757812 95.773438 227.726562 93.859375 " fill-opacity="1" fill-rule="nonzero"/><path fill="#62483c" d="M 213.359375 130.292969 C 212.730469 129.042969 210.613281 128.609375 208.320312 128.242188 C 206.394531 127.933594 204.457031 127.738281 202.503906 127.59375 C 200.523438 127.453125 198.550781 127.375 196.574219 127.449219 C 194.417969 127.53125 192.308594 127.8125 190.46875 128.699219 C 188.539062 129.632812 187.179688 130.988281 187.445312 131.804688 C 187.761719 132.773438 190.46875 132.648438 193.523438 132.542969 C 195.640625 132.46875 197.757812 132.394531 199.855469 132.554688 C 201.78125 132.703125 203.691406 133.058594 205.542969 133.59375 C 207.621094 134.199219 209.539062 135.003906 211.089844 134.5625 C 213.191406 133.96875 214.21875 131.863281 213.359375 130.292969 " fill-opacity="1" fill-rule="nonzero"/><path fill="#62483c" d="M 228.589844 134.476562 C 229.710938 133.820312 231.53125 134.398438 233.421875 135.167969 C 235.042969 135.828125 236.609375 136.617188 238.160156 137.453125 C 239.738281 138.304688 241.285156 139.191406 242.742188 140.222656 C 244.355469 141.367188 245.808594 142.671875 246.78125 144.289062 C 247.859375 146.09375 248.242188 147.929688 247.570312 148.453125 C 246.816406 149.039062 244.820312 147.664062 242.589844 146.121094 C 241.007812 145.027344 239.445312 143.917969 237.765625 143.035156 C 236.230469 142.234375 234.601562 141.621094 232.929688 141.15625 C 231.074219 140.640625 229.25 140.332031 228.238281 139.28125 C 226.714844 137.699219 226.972656 135.359375 228.589844 134.476562 " fill-opacity="1" fill-rule="nonzero"/><path fill="#62483c" d="M 249.980469 156.054688 C 256.40625 150.785156 260.085938 138.492188 257.9375 125.769531 C 256.753906 118.765625 253.5 112.492188 248.03125 107.578125 C 247.308594 95.757812 240.679688 86.269531 230.953125 81.804688 C 221.339844 77.390625 209.617188 78.507812 198.597656 82.832031 C 190.03125 86.195312 182.335938 91.320312 177.277344 98.613281 C 170.085938 108.976562 168.679688 122.914062 171.855469 137.226562 C 173.363281 137.507812 174.511719 138.492188 175.179688 139.761719 C 176.285156 141.859375 176.03125 144.375 176.332031 144.496094 C 176.753906 144.660156 177.945312 140.753906 179.460938 135.722656 C 180.554688 132.078125 181.675781 128.445312 183.269531 125.03125 C 185.707031 119.824219 189.289062 115.1875 193.558594 111.460938 C 196.101562 109.238281 198.851562 107.332031 201.929688 107.070312 C 207.105469 106.632812 212.972656 111.054688 219.429688 111.765625 C 224.390625 112.316406 229.636719 110.617188 234.417969 111.523438 C 238.441406 112.285156 242.070312 114.71875 244.503906 118.277344 C 248.257812 123.769531 248.957031 131.640625 248.261719 139.558594 C 247.464844 148.640625 245.109375 156.519531 246.984375 157.355469 C 247.660156 157.65625 248.824219 157.003906 249.980469 156.054688 " fill-opacity="1" fill-rule="nonzero"/><path stroke-linecap="butt" transform="matrix(0.0193598, 0, 0, -0.0193396, 16.323826, 461.380146)" fill="none" stroke-linejoin="miter" d="M 8265.193477 16299.968438 C 8232.506465 16075.365047 8195.582248 15851.165619 8153.210196 15628.380062 C 8119.716098 15451.84826 8082.791881 15276.326366 8041.630459 15101.410416 " stroke="#886047" stroke-width="56.202" stroke-opacity="1" stroke-miterlimit="4"/><path stroke-linecap="butt" transform="matrix(0.0198031, 0, 0, -0.0197826, 16.323826, 461.380146)" fill="none" stroke-linejoin="miter" d="M 7874.400038 15739.5279 C 7875.583562 16044.00984 7819.366168 16288.266752 7711.468223 16295.967657 C 7654.264559 16299.916839 7595.877371 16231.595989 7559.188124 16132.866437 " stroke="#886047" stroke-width="54.948002" stroke-opacity="1" stroke-miterlimit="4"/><path stroke-linecap="butt" transform="matrix(0.0179044, 0, 0, -0.0178858, 16.323826, 461.380146)" fill="none" stroke-linejoin="miter" d="M 12656.189454 16300.060832 C 12606.664372 16127.744015 12556.702945 15955.645597 12506.305174 15783.765578 C 12466.379667 15648.794992 12426.235988 15513.824405 12385.655964 15379.072218 " stroke="#886047" stroke-width="60.773998" stroke-opacity="1" stroke-miterlimit="4"/><path stroke-linecap="butt" transform="matrix(0.0168041, 0, 0, -0.0167867, 16.323826, 461.380146)" fill="none" stroke-linejoin="miter" d="M 9455.01811 16299.986425 C 9786.968066 15777.343005 10251.186598 15403.161963 10805.133898 15246.089697 C 11304.221123 15104.841008 11835.387544 15152.544437 12329.825609 15391.75968 " stroke="#886047" stroke-width="64.753998" stroke-opacity="1" stroke-miterlimit="4"/><g clip-path="url(#92a59c52c3)"><path stroke-linecap="butt" transform="matrix(0.0232959, 0, 0, -0.0232717, 16.323826, 461.380146)" fill="none" stroke-linejoin="miter" d="M 9636.904268 15364.907486 C 9646.62969 15631.459683 9535.458053 15859.2376 9329.882747 16013.83116 C 8949.249839 16300.022279 8345.770617 16280.719066 7778.677889 16029.609439 C 7506.366064 15909.090247 7271.614491 15727.472188 7090.352741 15481.398182 " stroke="#c7a66a" stroke-width="46.706001" stroke-opacity="1" stroke-miterlimit="4"/></g><path stroke-linecap="butt" transform="matrix(0.0229137, 0, 0, -0.0228899, 16.323826, 461.380146)" fill="none" stroke-linejoin="miter" d="M 9631.087821 15604.976564 C 9551.304812 15810.955669 9425.152191 15986.387749 9256.380441 16109.087813 C 9112.15731 16213.86923 8941.510319 16277.523088 8764.896649 16288.274275 C 8567.143892 16300.049386 8368.538753 16245.269524 8190.220318 16134.003264 " stroke="#c7a66a" stroke-width="47.486" stroke-opacity="1" stroke-miterlimit="4"/><path fill="#393939" d="M 195.078125 141.496094 C 195.585938 139.179688 197.550781 137.65625 199.449219 138.078125 C 201.351562 138.5 202.46875 140.710938 201.953125 143.027344 C 201.4375 145.339844 199.484375 146.871094 197.582031 146.449219 C 195.6875 146.023438 194.554688 143.8125 195.078125 141.496094 " fill-opacity="1" fill-rule="nonzero"/><path fill="#393939" d="M 227.125 149.488281 C 227.632812 147.167969 229.597656 145.644531 231.496094 146.066406 C 233.394531 146.488281 234.511719 148.699219 233.996094 151.015625 C 233.480469 153.328125 231.53125 154.859375 229.628906 154.4375 C 227.730469 154.011719 226.601562 151.800781 227.125 149.488281 " fill-opacity="1" fill-rule="nonzero"/><path fill="#ffffff" d="M 197.675781 175.632812 C 198.351562 174.519531 203.175781 176.113281 208.664062 177.441406 C 214.21875 178.789062 219.441406 179.597656 219.710938 180.941406 C 220.097656 182.851562 213.699219 184.886719 205.464844 181.910156 C 200.273438 180.03125 196.984375 176.875 197.675781 175.632812 " fill-opacity="1" fill-rule="nonzero"/><path fill="#f7bd9a" d="M 281.59375 347.050781 C 280.277344 343.421875 282.871094 338.566406 286.316406 334.03125 C 290.480469 328.539062 295.761719 324.042969 301.875 321.972656 C 311.484375 318.714844 321.78125 321.285156 327.289062 327.792969 C 329.484375 330.386719 330.769531 333.597656 332.890625 336.144531 C 334.914062 338.5625 337.648438 340.328125 339.269531 342.804688 C 341.378906 346.019531 341.664062 349.925781 339.703125 352.214844 C 336.945312 355.433594 329.859375 354.445312 322.253906 353.871094 C 302.625 352.378906 284.507812 353.644531 281.59375 347.050781 " fill-opacity="1" fill-rule="nonzero"/><path stroke-linecap="butt" transform="matrix(0.0193244, 0, 0, -0.0193043, 16.323826, 461.380146)" fill="none" stroke-linejoin="miter" d="M 10500.230051 16300.050349 C 10524.28482 16148.894096 10543.690348 15997.13079 10572.192217 15846.783942 C 10594.023435 15731.241478 10618.482486 15617.317823 10585.129235 15521.605764 C 10533.583302 15373.687129 10360.146398 15274.737453 10147.089876 15280.807985 " stroke="#886047" stroke-width="56.307999" stroke-opacity="1" stroke-miterlimit="4"/><g clip-path="url(#b29400f6d3)"><path fill="#4e4e4e" d="M 279.46875 377.664062 C 283.519531 385.109375 278.734375 396.234375 270.417969 405.953125 C 262.597656 415.09375 252.128906 421.75 241.039062 427.761719 C 228.773438 434.410156 216.40625 439.996094 204.257812 439.023438 C 193.566406 438.167969 184.074219 432.667969 180.976562 424.238281 C 178.960938 418.75 180.027344 412.371094 182.1875 406.183594 C 186.511719 393.808594 195.097656 383.222656 206.367188 376.511719 C 220.019531 368.386719 236.738281 366.40625 253.714844 367.855469 C 265.175781 368.832031 275.847656 371.128906 279.46875 377.664062 Z M 114.035156 330.683594 C 134.488281 339.238281 150.347656 354.667969 155.359375 373.242188 C 158.390625 384.460938 157.027344 396.136719 151.765625 406.128906 C 148.195312 412.914062 143.046875 418.523438 136.804688 419.765625 C 128.5625 421.410156 119.273438 415.253906 110.863281 407.453125 C 95 392.746094 84.554688 373.800781 81.878906 353.496094 C 80.441406 342.609375 81.183594 332.289062 86.960938 327.960938 C 92.945312 323.476562 103.546875 326.078125 114.035156 330.683594 Z M 296.535156 342.144531 C 291.410156 348.125 282 348.90625 274.878906 343.828125 C 269.617188 340.074219 266.507812 333.050781 261.890625 326.675781 C 253.878906 315.613281 241.515625 307.21875 228.042969 300.605469 C 210.609375 292.050781 191.605469 286.828125 172.503906 286.207031 C 160.496094 285.820312 148.4375 287.214844 137.019531 290.664062 C 126.769531 293.757812 117.179688 298.265625 108.308594 297.503906 C 101.804688 296.945312 96.339844 293.808594 95.273438 289.390625 C 94.074219 284.425781 99.113281 278.410156 104.882812 272.375 C 117.65625 259.015625 132.890625 247.929688 150.023438 241.753906 C 170.554688 234.355469 192.980469 234.179688 214.734375 239.171875 C 237.417969 244.375 258.132812 255.039062 273.9375 271.429688 C 286.902344 284.875 295.917969 302.058594 299.113281 319.746094 C 300.742188 328.746094 300.898438 337.25 296.535156 342.144531 Z M 320.617188 373.238281 C 326.007812 356.789062 327.394531 339.292969 324.851562 322.15625 C 321.589844 300.179688 311.953125 279.523438 297.777344 262.132812 C 283.941406 245.160156 266.15625 231.792969 246.070312 222.898438 C 224.597656 213.394531 201.140625 209.265625 177.75 210.941406 C 154.171875 212.628906 131.386719 220.160156 111.449219 232.867188 C 92.96875 244.644531 77.449219 260.476562 67.980469 279.660156 C 58.039062 299.804688 55.078125 322.925781 57.5 345.773438 C 60.636719 375.320312 72.449219 403.015625 92.5625 423.535156 C 118.496094 449.992188 155.921875 462.75 194.746094 461.265625 C 223.449219 460.167969 251.398438 451.0625 274.6875 434.308594 C 296.023438 418.953125 312.542969 397.710938 320.617188 373.238281 " fill-opacity="1" fill-rule="nonzero"/></g><path fill="#f7bd9a" d="M 71.296875 274.035156 C 70.996094 273.113281 66.820312 274.246094 62.378906 273.738281 C 56.664062 273.085938 51.441406 269.460938 46.589844 270.03125 C 42.609375 270.5 39.023438 273.769531 35.453125 277.132812 C 31.433594 280.925781 27.527344 284.773438 24.835938 289.390625 C 21.492188 295.132812 20.0625 301.816406 20.144531 308.527344 C 20.265625 318.460938 23.710938 327.839844 30.429688 333.164062 C 34.550781 336.433594 39.789062 337.941406 45.167969 339.25 C 48.242188 339.996094 51.332031 340.640625 54.453125 341.136719 C 62.730469 342.449219 71.015625 342.683594 76.53125 339.464844 C 79.699219 337.613281 81.871094 334.730469 82.609375 331.070312 C 84.835938 330.238281 86.539062 328.703125 87.5 326.6875 C 88.535156 324.503906 88.585938 322.007812 87.75 319.546875 C 89.28125 318.019531 90.175781 316.148438 90.191406 314.160156 C 90.207031 312.414062 89.539062 310.742188 88.25 309.398438 C 90.128906 307.769531 90.828125 305.335938 90.507812 303.136719 C 90.164062 300.824219 88.527344 298.765625 86.808594 296.6875 C 82.34375 291.28125 77.507812 286.347656 72.269531 281.714844 C 70.941406 280.542969 69.652344 279.390625 69.511719 278.210938 C 69.304688 276.433594 71.527344 274.742188 71.296875 274.035156 " fill-opacity="1" fill-rule="nonzero"/><path stroke-linecap="butt" transform="matrix(0.0136011, 0, 0, -0.0135869, 16.323826, 461.380146)" fill="none" stroke-linejoin="miter" d="M 2475.133995 12799.610812 C 2767.505431 12394.810193 3133.40053 12061.597183 3550.704751 11807.159294 C 4018.55649 11521.671357 4544.710196 11339.396079 5101.307292 11255.15845 " stroke="#886047" stroke-width="80" stroke-opacity="1" stroke-miterlimit="4"/><path stroke-linecap="butt" transform="matrix(0.0136011, 0, 0, -0.0135869, 16.323826, 461.380146)" fill="none" stroke-linejoin="miter" d="M 1881.200663 11583.483952 C 2233.022874 11189.60835 2666.9848 10898.657905 3145.463006 10710.057616 C 3743.991566 10474.019755 4402.832504 10403.007147 5073.161515 10465.394742 " stroke="#886047" stroke-width="80" stroke-opacity="1" stroke-miterlimit="4"/><path stroke-linecap="butt" transform="matrix(0.0136011, 0, 0, -0.0135869, 16.323826, 461.380146)" fill="none" stroke-linejoin="miter" d="M 1713.762012 10416.519668 C 2148.298341 10020.631562 2656.645535 9747.506145 3208.360201 9626.75596 C 3721.015421 9515.205789 4255.210777 9538.780825 4773.03563 9703.806078 " stroke="#886047" stroke-width="80" stroke-opacity="1" stroke-miterlimit="4"/><path stroke-linecap="butt" transform="matrix(0.0136011, 0, 0, -0.0135869, 16.323826, 461.380146)" fill="none" stroke-linejoin="miter" d="M 680.984324 10263.856934 C 633.021622 10342.632055 620.959147 10433.769694 635.606439 10518.294823 C 651.68974 10613.169968 704.822073 10698.557599 783.228166 10747.145173 C 831.190867 10777.332719 889.492834 10791.995242 909.884162 10827.070295 C 941.763562 10882.27038 882.312788 10983.758035 832.626876 11095.020705 C 791.84422 11186.158344 761.400829 11281.32099 755.943995 11377.921138 C 749.625555 11490.90881 777.771332 11603.608983 843.253343 11691.296617 C 930.562692 11808.596796 1078.758823 11880.471906 1248.207887 11892.259424 C 1209.722845 11983.684564 1182.151472 12078.272209 1165.780969 12175.159857 C 1145.964045 12291.022534 1141.368816 12408.610214 1154.292897 12525.047892 C 1164.919364 12620.785538 1187.321105 12714.798182 1223.22133 12804.210819 C 1262.855179 12903.39847 1317.423522 12995.686111 1396.404018 13060.08621 C 1499.509466 13144.036338 1639.663946 13180.548894 1787.572875 13169.623877 C 1814.857047 13255.011508 1848.172456 13338.099135 1888.093507 13418.024257 C 1935.194603 13512.324401 1988.614138 13602.88704 2063.573809 13671.024644 C 2143.990314 13743.762255 2245.659753 13791.774829 2358.24286 13808.449854 " stroke="#886047" stroke-width="80" stroke-opacity="1" stroke-miterlimit="4"/><g clip-path="url(#d20a246a59)"><path fill="#f7bd9a" d="M 325.171875 353.90625 C 330.148438 354.324219 334.992188 355.289062 338.480469 357.441406 C 340.175781 358.484375 341.519531 359.761719 342.476562 361.308594 C 344.140625 363.988281 344.449219 367.203125 343.25 369.296875 C 342.683594 370.285156 341.773438 370.980469 341.703125 371.75 C 341.609375 372.710938 342.835938 373.726562 343.6875 375.015625 C 345.078125 377.125 345.410156 379.90625 344.925781 382.601562 C 344.582031 384.542969 343.808594 386.402344 342.5 387.78125 C 341.164062 389.191406 339.257812 390.066406 338.652344 391.527344 C 338.128906 392.796875 338.59375 394.476562 338.496094 396.132812 C 338.414062 397.457031 337.96875 398.757812 337.355469 399.96875 C 336.542969 401.574219 335.421875 403.007812 333.957031 403.621094 C 332.9375 404.046875 331.769531 404.042969 330.777344 404.566406 C 329.039062 405.484375 327.914062 407.976562 325.941406 409.808594 C 322.375 413.128906 316.117188 414.191406 309.808594 413.855469 C 302.496094 413.46875 295.484375 411.128906 289.046875 407.425781 C 284.675781 404.914062 280.621094 401.636719 277.542969 397.949219 C 275.964844 396.0625 274.644531 394.058594 274.574219 392.21875 C 274.539062 391.195312 274.851562 390.214844 275.585938 389.46875 C 273.246094 387.984375 271.835938 385.761719 271.75 383.277344 C 271.664062 380.917969 272.695312 378.699219 274.617188 377.585938 C 276.101562 376.722656 277.9375 376.660156 279.574219 377.605469 C 278.3125 375.074219 278.535156 372.460938 280.195312 370.460938 C 282.390625 367.816406 286.164062 367.289062 290.207031 368.511719 C 289.246094 366.449219 289.664062 364.386719 291.257812 363.058594 C 294.402344 360.4375 301.585938 361.832031 309.011719 361.492188 C 312.101562 361.347656 315.21875 360.953125 318.1875 360.121094 C 320.265625 359.535156 322.320312 358.839844 324.25 357.851562 L 325.171875 353.90625 " fill-opacity="1" fill-rule="nonzero"/></g><path stroke-linecap="butt" transform="matrix(0.0195216, 0, 0, -0.0195013, 16.323826, 461.380146)" fill="none" stroke-linejoin="miter" d="M 14085.775247 4730.310208 C 14387.124044 4510.172962 14730.093393 4375.967362 15088.470349 4328.895249 C 15492.269734 4276.014236 15904.873466 4334.904455 16300.068602 4488.740128 " stroke="#886047" stroke-width="55.736" stroke-opacity="1" stroke-miterlimit="4"/><path stroke-linecap="butt" transform="matrix(0.0193706, 0, 0, -0.0193505, 16.323826, 461.380146)" fill="none" stroke-linejoin="miter" d="M 13643.417262 4267.957082 C 13982.606599 4057.812506 14330.870561 3868.056596 14695.46885 3723.317248 C 14935.038964 3628.035558 15179.448878 3549.307042 15429.505226 3529.322111 C 15720.699877 3506.107293 16018.750911 3554.959346 16300.064303 3669.620363 " stroke="#886047" stroke-width="56.173" stroke-opacity="1" stroke-miterlimit="4"/><path stroke-linecap="butt" transform="matrix(0.018813, 0, 0, -0.0187935, 16.323826, 461.380146)" fill="none" stroke-linejoin="miter" d="M 13891.893667 3777.354199 C 14148.94678 3586.338523 14425.310022 3428.371261 14718.6994 3307.401594 C 15030.775998 3178.533564 15357.802374 3089.573053 15690.019645 3058.603155 C 15893.295088 3039.896506 16097.193438 3041.975023 16300.053608 3072.321365 " stroke="#886047" stroke-width="57.837002" stroke-opacity="1" stroke-miterlimit="4"/><path stroke-linecap="butt" transform="matrix(0.0194373, 0, 0, -0.0194171, 16.323826, 461.380146)" fill="none" stroke-linejoin="miter" d="M 15920.21663 5535.417475 C 16046.825782 5508.258734 16173.434933 5481.30117 16300.044085 5454.14243 " stroke="#886047" stroke-width="55.978001" stroke-opacity="1" stroke-miterlimit="4"/><path stroke-linecap="butt" transform="matrix(0.0153488, 0, 0, -0.0153329, 16.323826, 461.380146)" fill="none" stroke-linejoin="miter" d="M 16299.905525 12096.500334 C 16037.262839 11598.183186 15870.057175 11066.7468 15817.884936 10520.279375 C 15771.820667 10034.700395 15817.12144 9543.007095 15961.931216 9066.599596 " stroke="#c7a66a" stroke-width="70.888" stroke-opacity="1" stroke-miterlimit="4"/><path stroke-linecap="butt" transform="matrix(0.0136011, 0, 0, -0.0135869, 16.323826, 461.380146)" fill="none" stroke-linejoin="miter" d="M 15616.914151 15795.940393 C 15138.148744 15628.615137 14713.664477 15361.239728 14333.983692 15027.451718 C 13729.998298 14496.725907 13247.786468 13789.474825 12865.233665 13017.536145 " stroke="#e9bc8b" stroke-width="80" stroke-opacity="1" stroke-miterlimit="4"/><path stroke-linecap="butt" transform="matrix(0.0136011, 0, 0, -0.0135869, 16.323826, 461.380146)" fill="none" stroke-linejoin="miter" d="M 10856.544247 16192.9785 C 11213.536089 16094.078349 11551.859815 15946.878124 11869.217808 15762.302842 C 12259.812262 15534.889994 12617.091306 15250.552059 12941.342143 14925.964063 " stroke="#e9bc8b" stroke-width="80" stroke-opacity="1" stroke-miterlimit="4"/><path stroke-linecap="butt" transform="matrix(0.0136011, 0, 0, -0.0135869, 16.323826, 461.380146)" fill="none" stroke-linejoin="miter" d="M 6897.754577 13828.574885 C 6733.762347 13293.536567 6569.482915 12758.498249 6405.490685 12223.17243 " stroke="#e9bc8b" stroke-width="80" stroke-opacity="1" stroke-miterlimit="4"/><path fill="#4e4e4e" d="M 147.402344 325.316406 C 152.542969 304.3125 174.441406 291.335938 196.894531 296.039062 C 220.566406 301 235.507812 323.21875 230.074219 345.371094 C 224.929688 366.359375 202.988281 379.304688 180.582031 374.648438 C 156.867188 369.71875 141.992188 347.488281 147.402344 325.316406 " fill-opacity="1" fill-rule="nonzero"/><path stroke-linecap="butt" transform="matrix(0.0136011, 0, 0, -0.0135869, 16.323826, 461.380146)" fill="none" stroke-linejoin="miter" d="M 9637.372588 10014.306552 C 10015.330162 11560.196416 11625.383476 12515.272877 13276.219447 12169.122347 C 15016.66238 11803.996789 16115.209281 10168.694289 15715.711572 8538.279295 C 15337.466796 6993.539433 13724.254262 6040.762977 12076.864713 6383.463501 C 10333.262559 6746.289055 9239.598089 8382.454057 9637.372588 10014.306552 Z M 9637.372588 10014.306552 " stroke="#9e9e9e" stroke-width="80" stroke-opacity="1" stroke-miterlimit="4"/><path stroke-linecap="butt" transform="matrix(0.0206383, 0, 0, -0.0206168, 16.323826, 461.380146)" fill="none" stroke-linejoin="miter" d="M 7235.142502 16300.087222 C 7007.826452 16278.108806 6785.620755 16230.74153 6568.903955 16164.427343 C 6313.007786 16086.176603 6067.521594 15983.10541 5902.665408 15795.720465 C 5665.317926 15525.537521 5599.45116 15094.874246 5551.94381 14653.79017 C 5508.221905 14248.515754 5470.935259 13846.083376 5438.569693 13440.619491 C 5421.345913 13224.245773 5400.71523 13007.682587 5383.112905 12791.877276 " stroke="#9e9e9e" stroke-width="52.723" stroke-opacity="1" stroke-miterlimit="4"/><path stroke-linecap="butt" transform="matrix(0.0136011, 0, 0, -0.0135869, 16.323826, 461.380146)" fill="none" stroke-linejoin="miter" d="M 7923.639422 5688.287438 C 8122.383071 5664.424901 8320.839517 5637.68736 8518.434359 5607.499814 C 8792.999283 5565.237249 9066.989805 5518.374678 9334.661886 5453.112078 C 9507.557372 5411.137014 9677.868042 5362.261939 9845.593896 5303.89935 L 9833.53142 5287.511825 C 9661.497539 5288.374326 9489.463659 5284.63682 9317.142576 5274.574305 C 9077.903473 5261.061784 8837.802765 5238.63675 8597.702057 5221.099223 C 8371.674237 5204.711698 8145.072013 5194.361682 7925.649835 5150.374115 C 7736.383846 5112.424057 7551.425884 5052.623966 7377.668792 4965.223832 " stroke="#c7a66a" stroke-width="80" stroke-opacity="1" stroke-miterlimit="4"/><path stroke-linecap="butt" transform="matrix(0.0136011, 0, 0, -0.0135869, 16.323826, 461.380146)" fill="none" stroke-linejoin="miter" d="M 15002.876694 5292.111832 C 14801.835431 5277.161809 14602.517379 5248.699265 14404.060932 5211.324208 C 14091.872571 5152.099118 13781.407421 5069.298991 13474.675894 4974.423846 C 13659.921057 4981.323857 13845.453423 4984.486361 14030.985788 4984.198861 C 14255.577599 4983.911361 14480.16941 4978.736353 14704.186817 4966.373834 C 14927.629821 4954.011315 15150.785623 4934.461285 15373.079819 4908.298745 " stroke="#c7a66a" stroke-width="80" stroke-opacity="1" stroke-miterlimit="4"/><path stroke-linecap="butt" transform="matrix(0.0167987, 0, 0, -0.0167812, 16.323826, 461.380146)" fill="none" stroke-linejoin="miter" d="M 16299.905536 9071.316227 C 16119.459745 9013.355248 15955.058748 8920.012467 15812.748408 8800.598884 C 15669.275402 8680.254201 15551.148519 8531.045416 15444.183231 8373.456731 C 15311.17422 8177.227393 15200.023334 7967.264329 15102.824442 7748.921364 " stroke="#c7a66a" stroke-width="64.771004" stroke-opacity="1" stroke-miterlimit="4"/></svg>